<svg width="912" height="1117" viewBox="0 0 912 1117" fill="none" xmlns="http://www.w3.org/2000/svg">
<path d="M110.457 294.323H30.8097C0.196613 294.323 -15.5645 299.573 -15.5645 324.948V353.822C-15.5645 379.208 0.196613 384.447 30.8097 384.447H49.1962C60.5711 384.447 65.8092 390.583 65.8092 408.083V786.17C65.8092 816.807 71.0707 832.556 96.4569 832.556H126.195C151.593 832.556 156.854 816.807 156.854 786.17V324.948C156.854 299.573 141.082 294.323 110.457 294.323Z" fill="white" fill-opacity="0.1"/>
<path d="M835.865 493.859C835.865 506.995 829.728 513.983 817.478 513.983H758.854V472.859C758.854 442.234 754.468 426.485 728.218 426.485H701.945C675.707 426.485 671.321 442.234 671.321 472.859V513.983H630.196C599.571 513.983 583.81 518.37 583.81 544.619V572.631C583.81 598.88 599.571 603.267 630.196 603.267H671.321V644.391C671.321 675.028 675.707 690.777 701.945 690.777H728.218C754.468 690.777 758.854 675.028 758.854 644.391V603.267H817.478C828.864 603.267 834.99 609.392 835.865 620.767V753.788C835.865 786.174 826.228 810.674 803.479 832.56L608.31 1027.72C585.549 1050.48 560.174 1060.99 528.686 1060.99H138.325C106.826 1060.99 81.4513 1050.48 58.69 1027.72L-136.467 832.56C-159.217 809.81 -169.751 786.174 -168.853 753.788V367.837C-168.853 335.451 -158.341 307.44 -134.717 283.815L63.94 82.5215C84.0763 62.4083 109.451 56.2603 138.325 56.2603H528.686C557.549 56.2603 582.924 62.4083 603.06 82.5215L801.729 283.815C824.478 307.44 835.865 335.451 835.865 367.837V493.859ZM656.434 31.7609C622.31 -1.48877 579.435 -18.9999 527.788 -18.9999H139.201C87.5649 -18.9999 43.8039 -1.48877 10.5659 31.7609L-195.126 236.566C-227.489 268.941 -245 311.826 -245 359.087V753.788C-245 808.049 -226.614 850.071 -189.865 885.957L5.31586 1081.11C43.8039 1119.63 86.6899 1137.13 141.837 1136.25H525.174C578.56 1136.25 622.31 1120.49 661.696 1081.11L856.865 885.957C892.751 850.071 912 807.174 912 753.788V359.087C912 311.826 894.5 268.941 862.114 236.566L656.434 31.7609Z" fill="white" fill-opacity="0.1"/>
<path d="M387.788 756.412C331.789 756.412 311.653 734.537 311.653 679.39C311.653 624.254 331.789 598.879 387.788 598.879C443.811 598.879 463.947 624.254 463.947 679.39C463.947 734.537 443.811 756.412 387.788 756.412ZM387.788 365.2C435.936 365.2 455.197 382.711 455.197 441.358C455.197 498.232 435.936 517.505 387.788 517.505C339.676 517.505 320.415 498.232 320.415 441.358C320.415 382.711 339.676 365.2 387.788 365.2ZM491.06 553.38C540.071 517.505 540.946 480.744 540.946 450.983V421.233C535.696 322.325 502.447 284.689 387.788 284.689C273.153 284.689 239.904 322.325 234.643 421.233V450.983C234.643 480.744 235.517 517.505 284.528 553.38C225.893 576.129 221.518 626.027 221.518 691.651C221.518 788.798 255.642 836.934 387.788 839.57C519.946 836.934 554.094 788.798 554.094 691.651C554.094 626.027 549.719 576.129 491.06 553.38Z" fill="white" fill-opacity="0.1"/>
</svg>
