<svg width="58" height="57" viewBox="0 0 58 57" fill="none" xmlns="http://www.w3.org/2000/svg">
<path d="M17.538 15.459H13.6084C12.0979 15.459 11.3203 15.718 11.3203 16.9699V18.3945C11.3203 19.6471 12.0979 19.9055 13.6084 19.9055H14.5155C15.0767 19.9055 15.3352 20.2083 15.3352 21.0717V39.726C15.3352 41.2376 15.5948 42.0146 16.8473 42.0146H18.3145C19.5676 42.0146 19.8272 41.2376 19.8272 39.726V16.9699C19.8272 15.718 19.049 15.459 17.538 15.459Z" fill="white" fill-opacity="0.5"/>
<path d="M53.3284 25.3037C53.3284 25.9519 53.0256 26.2967 52.4212 26.2967H49.5288V24.2676C49.5288 22.7567 49.3124 21.9796 48.0172 21.9796H46.721C45.4264 21.9796 45.21 22.7567 45.21 24.2676V26.2967H43.181C41.67 26.2967 40.8923 26.5131 40.8923 27.8082V29.1902C40.8923 30.4854 41.67 30.7018 43.181 30.7018H45.21V32.7308C45.21 34.2424 45.4264 35.0194 46.721 35.0194H48.0172C49.3124 35.0194 49.5288 34.2424 49.5288 32.7308V30.7018H52.4212C52.983 30.7018 53.2852 31.004 53.3284 31.5652V38.1283C53.3284 39.7262 52.8529 40.935 51.7305 42.0148L42.1011 51.6436C40.9781 52.7666 39.7262 53.2852 38.1726 53.2852H18.9128C17.3586 53.2852 16.1067 52.7666 14.9837 51.6436L5.35488 42.0148C4.23244 40.8924 3.71267 39.7262 3.75697 38.1283V19.086C3.75697 17.4881 4.27561 16.1061 5.44122 14.9405L15.2427 5.00893C16.2362 4.01657 17.4881 3.71323 18.9128 3.71323H38.1726C39.5967 3.71323 40.8486 4.01657 41.8421 5.00893L51.6442 14.9405C52.7666 16.1061 53.3284 17.4881 53.3284 19.086V25.3037ZM44.4755 2.50446C42.7919 0.863976 40.6765 0 38.1283 0H18.9559C16.4083 0 14.2492 0.863976 12.6093 2.50446L2.46072 12.6093C0.863973 14.2066 0 16.3225 0 18.6543V38.1283C0 40.8054 0.907134 42.8788 2.72031 44.6493L12.3502 54.2781C14.2492 56.1782 16.3651 57.0416 19.086 56.9985H37.9994C40.6333 56.9985 42.7919 56.2208 44.7351 54.2781L54.3645 44.6493C56.1351 42.8788 57.0848 40.7623 57.0848 38.1283V18.6543C57.0848 16.3225 56.2214 14.2066 54.6235 12.6093L44.4755 2.50446Z" fill="white" fill-opacity="0.5"/>
<path d="M31.2212 38.2577C28.4582 38.2577 27.4647 37.1784 27.4647 34.4575C27.4647 31.7372 28.4582 30.4852 31.2212 30.4852C33.9852 30.4852 34.9787 31.7372 34.9787 34.4575C34.9787 37.1784 33.9852 38.2577 31.2212 38.2577ZM31.2212 18.9558C33.5967 18.9558 34.547 19.8198 34.547 22.7134C34.547 25.5195 33.5967 26.4704 31.2212 26.4704C28.8473 26.4704 27.897 25.5195 27.897 22.7134C27.897 19.8198 28.8473 18.9558 31.2212 18.9558ZM36.3165 28.2403C38.7346 26.4703 38.7778 24.6566 38.7778 23.1882V21.7204C38.5187 16.8404 36.8782 14.9835 31.2212 14.9835C25.5652 14.9835 23.9248 16.8404 23.6652 21.7204V23.1882C23.6652 24.6566 23.7083 26.4703 26.1264 28.2403C23.2334 29.3628 23.0176 31.8247 23.0176 35.0625C23.0176 39.8556 24.7012 42.2305 31.2212 42.3606C37.7416 42.2305 39.4265 39.8556 39.4265 35.0625C39.4265 31.8247 39.2106 29.3628 36.3165 28.2403Z" fill="white" fill-opacity="0.5"/>
</svg>
