<svg width="375" height="438" viewBox="0 0 375 438" fill="none" xmlns="http://www.w3.org/2000/svg">
<path d="M102.765 118.79H72.5681C60.9618 118.79 54.9863 120.78 54.9863 130.401V141.348C54.9863 150.972 60.9618 152.958 72.5681 152.958H79.5389C83.8515 152.958 85.8374 155.285 85.8374 161.92V305.263C85.8374 316.878 87.8322 322.849 97.4568 322.849H108.731C118.36 322.849 120.355 316.878 120.355 305.263V130.401C120.355 120.78 114.375 118.79 102.765 118.79Z" fill="white" fill-opacity="0.1"/>
<path d="M377.786 194.439C377.786 199.42 375.46 202.069 370.816 202.069H348.59V186.478C348.59 174.867 346.927 168.896 336.975 168.896H327.014C317.066 168.896 315.403 174.867 315.403 186.478V202.069H299.812C288.201 202.069 282.225 203.732 282.225 213.684V224.304C282.225 234.256 288.201 235.919 299.812 235.919H315.403V251.51C315.403 263.126 317.066 269.097 327.014 269.097H336.975C346.927 269.097 348.59 263.126 348.59 251.51V235.919H370.816C375.132 235.919 377.455 238.241 377.786 242.554V292.986C377.786 305.264 374.133 314.553 365.508 322.851L291.514 396.84C282.885 405.47 273.264 409.455 261.326 409.455H113.33C101.387 409.455 91.7669 405.47 83.1375 396.84L9.14802 322.851C0.522957 314.225 -3.4711 305.264 -3.13064 292.986V146.661C-3.13064 134.382 0.854698 123.763 9.81149 114.806L85.1279 38.4896C92.7622 30.8641 102.382 28.5333 113.33 28.5333H261.326C272.269 28.5333 281.889 30.8641 289.524 38.4896L364.845 114.806C373.47 123.763 377.786 134.382 377.786 146.661V194.439ZM309.759 19.2448C296.822 6.63895 280.567 0 260.986 0H113.661C94.0848 0 77.4938 6.63895 64.8923 19.2448L-13.0913 96.8923C-25.361 109.166 -32 125.426 -32 143.344V292.986C-32 313.558 -25.0294 329.49 -11.0966 343.095L62.9018 417.085C77.4937 431.685 93.7531 438.32 114.661 437.988H259.995C280.235 437.988 296.822 432.013 311.754 417.085L385.748 343.095C399.354 329.49 406.652 313.226 406.652 292.986V143.344C406.652 125.426 400.017 109.166 387.738 96.8923L309.759 19.2448Z" fill="white" fill-opacity="0.1"/>
<path d="M207.907 293.981C186.676 293.981 179.042 285.687 179.042 264.779C179.042 243.876 186.676 234.255 207.907 234.255C229.147 234.255 236.781 243.876 236.781 264.779C236.781 285.687 229.147 293.981 207.907 293.981ZM207.907 145.661C226.161 145.661 233.464 152.3 233.464 174.535C233.464 196.098 226.161 203.404 207.907 203.404C189.666 203.404 182.364 196.098 182.364 174.535C182.364 152.3 189.666 145.661 207.907 145.661ZM247.06 217.005C265.642 203.404 265.974 189.467 265.974 178.184V166.905C263.983 129.406 251.377 115.137 207.907 115.137C164.446 115.137 151.84 129.406 149.845 166.905V178.184C149.845 189.467 150.177 203.404 168.758 217.005C146.528 225.63 144.869 244.548 144.869 269.428C144.869 306.259 157.807 324.509 207.907 325.508C258.012 324.509 270.958 306.259 270.958 269.428C270.958 244.548 269.3 225.63 247.06 217.005Z" fill="white" fill-opacity="0.1"/>
</svg>
