<svg width="258" height="165" viewBox="0 0 258 165" fill="none" xmlns="http://www.w3.org/2000/svg">
<path fill-rule="evenodd" clip-rule="evenodd" d="M208.898 13.1416L208.906 12.9105L208.961 12.9525L208.898 13.1416ZM231.17 27.5776L231.242 27.6316L231.949 28.1348L215.886 27.1571C214.404 27.3095 211.277 28.3738 210.656 31.3844C210.397 33.1886 211.011 37.0302 215.533 38.0477L237.891 39.9278L237.921 39.9288L250.535 40.9981C252.205 41.0074 255.888 40.0279 257.119 37.1461L257.105 37.1803C257.072 37.2642 257.166 37.0576 257.133 37.1132L257.119 37.1461C257.131 37.1164 257.143 37.0888 257.155 37.0686C257.493 36.1587 257.431 33.7925 255.278 29.4927L242.305 2.95646C241.185 1.43528 237.355 -0.990785 234.324 0.430448C232.717 1.117 230.353 3.32336 230.987 6.55678C231.084 6.88541 231.44 7.7742 232.04 8.72715L238.858 19.1173L238.825 19.096L239.295 19.5876L238.622 20.2607L238.014 21.1657C219.558 10.5053 205.556 15.6801 199.618 20.5175C194.299 24.8517 190.513 29.7407 187.846 34.6353C187.57 34.4905 187.304 34.3539 187.047 34.2255C140.924 11.164 96.7616 29.3988 77.2428 40.4212L77.2064 40.4417L77.1705 40.463C61.918 49.5015 50.6791 62.1826 43.3266 74.5168C41.5392 77.5151 39.9656 80.5208 38.6136 83.4751C18.1289 92.2902 5.20474 108.936 0 119.056L7.1143 122.715C11.1606 114.847 20.325 102.733 34.5122 94.5004C33.1393 99.3692 32.5063 103.834 32.6585 107.561C34.1008 142.899 60.1312 159.141 74.2028 162.597C103.041 169.68 120.866 150.425 126.092 138.729L126.177 138.539L126.241 138.341C131.664 121.773 125.898 107.993 116.885 98.1069C108.001 88.3625 95.7377 82.0772 86.9346 79.8763L86.9013 79.868L86.8679 79.8603C72.7686 76.5909 60.3122 77.0585 49.515 79.7791C49.7383 79.3914 49.9661 79.0026 50.1983 78.6131C56.9738 67.2468 67.3034 55.6188 81.2131 47.3666C99.9876 36.773 140.999 20.1455 183.47 41.381C183.825 41.5587 184.206 41.7575 184.609 41.9761C182.158 49.0695 181.725 55.5597 181.939 59.6286C182.59 71.9867 190.692 76.5542 195.781 76.9176C199.175 77.16 203.579 76.4047 206.913 73.5396C210.536 70.4273 212.105 65.5254 210.788 59.2698C209.443 52.8814 204.845 47.3854 200.289 43.3019C198.452 41.6548 196.532 40.1588 194.671 38.8461C196.905 34.6459 200.113 30.4337 204.672 26.7195C208.051 23.9664 218.28 19.2243 233.541 27.8242L232.936 28.7259L231.17 27.5776ZM40.6518 107.235C40.4786 102.993 41.7361 96.7852 44.6291 89.7074C55.7885 85.5386 69.2644 83.9974 85.0268 87.6456C92.4341 89.5058 103.251 95.0266 110.973 103.497C118.538 111.795 122.898 122.59 118.703 135.652C114.365 145.14 99.8028 160.647 76.111 154.828C64.5147 151.979 41.9114 138.094 40.6518 107.235ZM189.928 59.2082C189.772 56.2409 190.049 51.6327 191.564 46.4806C192.701 47.3385 193.845 48.2684 194.95 49.259C199.085 52.966 202.143 57.0392 202.959 60.9179C203.804 64.9295 202.671 66.6376 201.7 67.4719C200.441 68.5534 198.361 69.0815 196.351 68.938C195.135 68.8511 190.359 67.3844 189.928 59.2082Z" fill="url(#paint0_linear_2326_4937)"/>
<defs>
<linearGradient id="paint0_linear_2326_4937" x1="175.445" y1="-17.4127" x2="28.6311" y2="158.028" gradientUnits="userSpaceOnUse">
<stop stop-color="#FDF1F2"/>
<stop offset="1" stop-color="white" stop-opacity="0.62"/>
</linearGradient>
</defs>
</svg>
