<svg width="1076" height="390" viewBox="0 0 1076 390" fill="none" xmlns="http://www.w3.org/2000/svg">
<path d="M1067.24 122.513L1013.27 11.7578C1008.7 5.45806 993.454 -4.32149 981.806 2.09821C975.622 5.21807 966.676 14.8776 969.558 28.497C969.978 29.8769 971.479 33.5968 973.941 37.5566L1001.86 80.6946C982.887 68.0352 938.157 45.6562 901.353 38.8765C877.157 34.4367 823.181 36.2366 774.008 74.2149C757.377 87.4743 728.798 119.933 714.209 167.091C694.816 173.03 675.363 185.69 661.133 208.669C652.367 222.348 639.159 264.046 656.75 321.464L643.842 309.224C606.857 274.486 561.467 232.368 497.345 218.928C432.201 205.309 354.15 222.288 252.082 289.185C184.417 333.583 118.613 341.683 63.6768 320.744C9.58089 300.105 -40.1921 249.047 -72.7337 162.171C-73.8745 159.111 -77.1767 157.371 -80.3588 158.271L-114.582 168.231C-118.004 169.251 -119.865 172.91 -118.604 176.27C-82.7604 272.026 -24.4617 337.123 47.7662 364.602C121.855 392.8 204.17 379.061 280.961 328.723C377.745 265.306 483.475 275.506 483.475 275.506C514.456 279.405 555.823 299.025 642.281 378.101C653.448 390.16 682.087 399.76 701.96 371.921C705.083 367.181 710.546 352.722 707.664 332.683C700.94 309.884 692.834 263.326 699.739 243.047C701.12 240.047 702.861 236.567 705.083 232.968C705.683 278.326 717.391 349.482 761.22 376.481C780.913 388.6 810.152 399.82 847.137 371.921C859.865 361.482 881.119 327.583 864.188 275.146C858.965 258.226 844.375 228.528 818.378 202.069C806.19 189.71 791.42 177.77 774.008 168.411C771.667 167.391 769.025 166.491 766.143 165.651C772.928 148.311 782.954 131.032 797.544 117.773C808.051 105.653 840.773 82.0745 887.724 85.0144C905.015 87.3543 946.383 97.1339 973.22 117.773L976.042 119.813L913.241 117.773C907.477 118.613 895.409 123.533 893.367 136.372C892.587 144.052 895.469 160.251 913.241 163.971L1000.72 169.011H1000.84L1050.19 171.89C1056.74 171.71 1070.55 168.171 1074.93 155.691C1075.05 155.451 1075.23 155.211 1075.35 154.851C1075.41 154.671 1075.47 154.491 1075.53 154.371C1076.73 150.471 1076.19 140.452 1067.24 122.513ZM761.88 215.148C773.768 219.888 801.206 239.687 815.856 280.965C820.239 295.245 824.562 324.343 815.856 332.563C812.434 335.743 804.809 342.343 792.621 336.943C788.058 334.243 777.791 327.403 768.064 305.684C763.081 293.805 753.174 261.346 753.595 226.428C753.655 222.708 753.895 218.148 754.495 213.048C756.837 213.648 759.298 214.308 761.88 215.148Z" fill="url(#paint0_linear_490_2169)"/>
<defs>
<linearGradient id="paint0_linear_490_2169" x1="-118.995" y1="194.978" x2="570.021" y2="583.592" gradientUnits="userSpaceOnUse">
<stop stop-color="#FAE159"/>
<stop offset="1" stop-color="#F5CC4A"/>
</linearGradient>
</defs>
</svg>
