<svg width="192" height="123" viewBox="0 0 192 123" fill="none" xmlns="http://www.w3.org/2000/svg">
<path fill-rule="evenodd" clip-rule="evenodd" d="M155.556 9.72646L155.562 9.55762L155.602 9.58828L155.556 9.72646ZM171.95 20.7854C161.79 15.6338 155.17 18.8841 153.084 20.5841C150.116 23.002 147.95 25.7166 146.381 28.4506C147.549 29.3072 148.733 30.2545 149.877 31.2796C153.304 34.3511 156.907 38.6043 157.971 43.6591C159.008 48.5811 157.79 52.6244 154.764 55.2242C152.026 57.5767 148.464 58.1653 145.772 57.973C141.503 57.668 135.073 53.8843 134.563 44.1934C134.408 41.2487 134.694 36.6537 136.312 31.5827L136.268 31.5608C105.308 16.0806 75.3632 28.1756 61.5606 35.9615C51.941 41.671 44.6645 49.6061 39.7258 57.4943C47.2893 55.9504 55.8706 55.8788 65.4607 58.1025L65.4941 58.1103L65.5274 58.1186C72.2248 59.7931 81.4879 64.5443 88.2131 71.9213C95.0677 79.4402 99.5176 90.0196 95.3587 102.727L95.294 102.925L95.2092 103.115C91.2116 112.062 77.5984 126.77 55.6031 121.368C44.8654 118.73 25.1519 106.401 24.0605 79.6623C23.9699 77.443 24.2371 74.9082 24.8405 72.1723C15.7703 78.057 9.84297 86.0066 7.1143 91.3124L0 87.6536C3.88736 80.0948 13.5032 67.6797 28.7314 60.9912C29.7113 58.8839 30.8375 56.7502 32.103 54.6273C37.6197 45.3728 46.0556 35.8505 57.5179 29.058L57.5539 29.0367L57.5903 29.0161C72.0966 20.8243 105.048 7.17608 139.555 24.2604C141.553 20.8272 144.295 17.4256 148.031 14.3822C152.765 10.525 163.637 6.638 177.729 14.8265L178.057 14.4992L177.709 14.1354L177.733 14.1512L172.686 6.46007C172.242 5.75466 171.979 5.09676 171.907 4.8535C171.438 2.46004 173.188 0.826832 174.377 0.318629C176.621 -0.733405 179.456 1.06243 180.285 2.18845L189.887 21.8313C191.481 25.0141 191.527 26.7656 191.277 27.4391C191.269 27.4541 191.26 27.4746 191.251 27.4967C190.339 29.6297 187.613 30.3548 186.377 30.3479L177.04 29.5563L177.017 29.5556L160.467 28.1639C157.12 27.4108 156.666 24.5671 156.857 23.2316C157.317 21.003 159.632 20.2152 160.729 20.1024L171.95 20.7854ZM191.251 27.4967L191.241 27.5218C191.216 27.5839 191.285 27.431 191.261 27.4722L191.251 27.4967ZM32.0538 79.336C31.9365 76.4615 32.7737 72.1792 34.7487 67.225C42.7582 64.3225 52.3887 63.2903 63.6193 65.8878C68.9214 67.2217 76.7378 71.2085 82.3012 77.311C87.7071 83.2408 90.7523 90.8356 87.8207 100.037C84.7118 106.775 74.3601 117.737 57.5112 113.599C49.2489 111.569 32.9624 101.597 32.0538 79.336ZM142.552 43.7729C142.456 41.9542 142.59 39.261 143.322 36.1969C143.732 36.5318 144.138 36.8788 144.537 37.2367C147.544 39.9318 149.607 42.762 150.143 45.3072C150.439 46.7141 150.346 47.5994 150.198 48.1154C150.059 48.6028 149.83 48.9158 149.55 49.1564C148.888 49.7254 147.65 50.0868 146.342 49.9933C146.106 49.9765 145.241 49.7701 144.407 48.9384C143.657 48.1905 142.706 46.7069 142.552 43.7729Z" fill="url(#paint0_linear_2331_5597)"/>
<defs>
<linearGradient id="paint0_linear_2331_5597" x1="130.499" y1="-12.9999" x2="30.4999" y2="113.999" gradientUnits="userSpaceOnUse">
<stop offset="0.0240405" stop-color="#F8E2E4"/>
<stop offset="0.385417" stop-color="#EAD4D6"/>
<stop offset="1" stop-color="#EAD4D6" stop-opacity="0.62"/>
</linearGradient>
</defs>
</svg>
