<svg width="195" height="51" viewBox="0 0 195 51" fill="none" xmlns="http://www.w3.org/2000/svg">
<path d="M64.8134 12.1458C68.1052 12.1458 70.6404 12.9023 72.4191 14.4155C74.1977 15.9287 75.087 18.0922 75.087 20.9062C75.087 22.4459 74.8348 23.7865 74.3305 24.928C73.8526 26.043 73.1624 26.9721 72.2598 27.7155C71.3838 28.4588 70.3086 29.0163 69.0344 29.3879C67.7601 29.7596 66.3399 29.9454 64.7736 29.9454H62.4242V39.8208H57.606V12.1458H64.8134ZM64.8134 26.2023C66.4859 26.2023 67.7999 25.7775 68.7556 24.928C69.7113 24.0785 70.1891 22.7379 70.1891 20.9062C70.1891 19.1541 69.7379 17.8799 68.8353 17.0835C67.9592 16.2871 66.6717 15.8889 64.9727 15.8889H62.4242V26.2023H64.8134Z" fill="#D7D7D7"/>
<path d="M81.9675 31.4984C82.0472 33.1708 82.4587 34.4185 83.202 35.2415C83.9453 36.0644 85.193 36.4759 86.9451 36.4759C88.1131 36.4759 89.2546 36.2901 90.3696 35.9184C91.5111 35.5468 92.4535 35.1087 93.1968 34.6044V38.4669C92.5066 38.9448 91.604 39.3562 90.4891 39.7013C89.3741 40.0465 88.06 40.219 86.5469 40.219C83.494 40.219 81.1446 39.3695 79.4987 37.6705C77.8793 35.9715 77.0696 33.3699 77.0696 29.8658C77.0696 28.3526 77.2422 26.9589 77.5873 25.6846C77.9324 24.4104 78.4501 23.3087 79.1403 22.3795C79.8571 21.4239 80.7464 20.6938 81.8083 20.1894C82.8967 19.6585 84.1576 19.393 85.5912 19.393C86.7858 19.393 87.8609 19.5656 88.8166 19.9107C89.7723 20.2558 90.582 20.8133 91.2456 21.5831C91.9359 22.353 92.4668 23.3485 92.8385 24.5697C93.2101 25.7643 93.3959 27.2376 93.3959 28.9897V31.4984H81.9675ZM85.5115 23.1361C84.37 23.1361 83.5072 23.5476 82.9232 24.3706C82.3392 25.1935 82.0206 26.4014 81.9675 27.9942H88.5777V27.596C88.5777 26.9589 88.5246 26.3748 88.4184 25.8439C88.3388 25.2864 88.1795 24.8086 87.9406 24.4104C87.7016 24.0122 87.3831 23.7069 86.9849 23.4945C86.5867 23.2556 86.0956 23.1361 85.5115 23.1361Z" fill="#D7D7D7"/>
<path d="M101.309 30.1445V39.8208H96.5707V19.7912H101.309V29.1888L107.999 19.7912H112.778L106.088 29.1888L113.693 39.8208H108.318L101.309 30.1445Z" fill="#D7D7D7"/>
<path d="M114.305 35.7193C114.384 35.799 114.477 35.8653 114.583 35.9184C114.69 35.9715 114.796 36.0113 114.902 36.0379C115.035 36.0644 115.194 36.0777 115.38 36.0777C115.778 36.0777 116.097 35.9848 116.336 35.799C116.574 35.6131 116.76 35.3078 116.893 34.8831C117.026 34.4584 117.119 33.8876 117.172 33.1708C117.251 32.4541 117.318 31.5647 117.371 30.5029L117.769 19.7912H131.348V39.8208H126.609V23.5343H121.751L121.512 30.702C121.459 32.3744 121.34 33.808 121.154 35.0026C120.968 36.1972 120.676 37.1794 120.278 37.9493C119.88 38.7191 119.349 39.2899 118.685 39.6615C118.021 40.0332 117.185 40.219 116.176 40.219C115.619 40.219 115.167 40.1526 114.822 40.0199C114.637 39.9668 114.464 39.9004 114.305 39.8208V35.7193Z" fill="#D7D7D7"/>
<path d="M145.575 30.702H144.898C142.854 30.702 141.394 30.9409 140.518 31.4187C139.642 31.87 139.204 32.6664 139.204 33.808C139.204 34.6575 139.442 35.3477 139.92 35.8786C140.425 36.383 141.181 36.6352 142.19 36.6352C143.04 36.6352 143.743 36.4892 144.3 36.1972C144.858 35.8786 145.283 35.4937 145.575 35.0424V30.702ZM150.313 34.9229C150.313 36.5688 150.393 38.2015 150.552 39.8208H145.933C145.853 39.6084 145.774 39.3562 145.694 39.0642C145.641 38.7722 145.601 38.4935 145.575 38.228H145.376C144.924 38.7058 144.34 39.1439 143.624 39.5421C142.907 39.9137 141.858 40.0996 140.478 40.0996C138.646 40.0996 137.159 39.5553 136.018 38.4669C134.903 37.3785 134.345 35.8122 134.345 33.7681C134.345 31.724 135.182 30.1445 136.854 29.0295C138.527 27.888 141.181 27.3173 144.818 27.3173H145.575V26.2023C145.575 25.1139 145.309 24.3573 144.778 23.9325C144.247 23.4812 143.411 23.2556 142.27 23.2556C141.659 23.2556 141.035 23.322 140.398 23.4547C139.761 23.5609 139.15 23.7069 138.566 23.8927C138.009 24.0785 137.478 24.2909 136.974 24.5298C136.496 24.7688 136.098 25.0077 135.779 25.2466V21.3044C136.496 20.8797 137.451 20.4682 138.646 20.07C139.841 19.6718 141.234 19.4727 142.827 19.4727C145.349 19.4727 147.221 19.9771 148.442 20.9858C149.69 21.9946 150.313 23.7202 150.313 26.1625V34.9229Z" fill="#D7D7D7"/>
<path d="M175.825 39.8208H171.206V24.8484L166.348 39.8208H162.486L158.145 24.8882V39.8208H154.123V19.7912H161.012L164.915 33.131L169.255 19.7912H175.746L175.825 39.8208Z" fill="#D7D7D7"/>
<path d="M190.023 30.702H189.346C187.301 30.702 185.841 30.9409 184.965 31.4187C184.089 31.87 183.651 32.6664 183.651 33.808C183.651 34.6575 183.89 35.3477 184.368 35.8786C184.872 36.383 185.629 36.6352 186.638 36.6352C187.487 36.6352 188.191 36.4892 188.748 36.1972C189.306 35.8786 189.73 35.4937 190.023 35.0424V30.702ZM194.761 34.9229C194.761 36.5688 194.841 38.2015 195 39.8208H190.381C190.301 39.6084 190.222 39.3562 190.142 39.0642C190.089 38.7722 190.049 38.4935 190.023 38.228H189.823C189.372 38.7058 188.788 39.1439 188.071 39.5421C187.355 39.9137 186.306 40.0996 184.926 40.0996C183.094 40.0996 181.607 39.5553 180.466 38.4669C179.351 37.3785 178.793 35.8122 178.793 33.7681C178.793 31.724 179.629 30.1445 181.302 29.0295C182.974 27.888 185.629 27.3173 189.266 27.3173H190.023V26.2023C190.023 25.1139 189.757 24.3573 189.226 23.9325C188.695 23.4812 187.859 23.2556 186.717 23.2556C186.107 23.2556 185.483 23.322 184.846 23.4547C184.209 23.5609 183.598 23.7069 183.014 23.8927C182.457 24.0785 181.926 24.2909 181.421 24.5298C180.944 24.7688 180.545 25.0077 180.227 25.2466V21.3044C180.944 20.8797 181.899 20.4682 183.094 20.07C184.288 19.6718 185.682 19.4727 187.275 19.4727C189.797 19.4727 191.668 19.9771 192.89 20.9858C194.137 21.9946 194.761 23.7202 194.761 26.1625V34.9229Z" fill="#D7D7D7"/>
<path fill-rule="evenodd" clip-rule="evenodd" d="M25.2195 50.4389C39.1478 50.4389 50.4389 39.1478 50.4389 25.2195C50.4389 11.2911 39.1478 0 25.2195 0C11.2911 0 0 11.2911 0 25.2195C0 39.1478 11.2911 50.4389 25.2195 50.4389ZM29.3361 38.7999H33.9488V11.6405H27.087C25.5875 11.6405 24.2278 11.8229 23.008 12.1876C21.7881 12.5523 20.7461 13.0994 19.882 13.8289C19.0179 14.5583 18.3571 15.4832 17.8997 16.6034C17.4422 17.6976 17.2135 19.0002 17.2135 20.5113C17.2135 22.4912 17.6837 24.1456 18.624 25.4742C19.5643 26.7768 20.9113 27.7277 22.6649 28.3269L16.4892 38.7999H21.3687L26.9726 29.1085H29.3361V38.7999ZM23.2748 16.5644C24.1897 15.7307 25.4477 15.3139 27.0488 15.3139H29.3361V25.4351H26.8963C25.2698 25.4351 24.0245 25.0444 23.1604 24.2628C22.3218 23.4812 21.9024 22.2307 21.9024 20.5113C21.9024 18.7137 22.3599 17.398 23.2748 16.5644Z" fill="#D7D7D7"/>
</svg>
