<svg width="166" height="226" viewBox="0 0 166 226" fill="none" xmlns="http://www.w3.org/2000/svg">
<path d="M149.69 220.821L165.455 198.683C166.194 197.14 166.483 193.19 164.013 191.662C162.758 190.82 159.945 190.153 157.612 192.161C157.389 192.389 156.826 193.073 156.319 193.965L150.904 203.9C151.358 198.934 150.983 188.025 148.421 180.296C146.733 175.217 140.702 165.141 128.17 159.855C123.852 158.112 114.557 156.152 103.889 158.43C100.697 155.377 96.1975 153.032 90.2495 152.788C86.6776 152.586 77.2121 154.541 67.9454 164.041L68.9565 160.273C71.7897 149.514 75.1671 136.365 71.0186 122.725C66.7975 108.871 55.292 95.8408 31.5914 83.5903C15.8698 75.4742 7.37333 63.8224 5.6443 51.1265C3.94568 38.6226 8.59273 23.6816 21.9902 8.1807C22.4626 7.63577 22.4519 6.82105 21.9426 6.31207L16.4108 0.868182C15.853 0.326365 14.9483 0.364436 14.4305 0.96436C-0.338843 18.0451 -6.807 36.1126 -4.52389 52.7992C-2.18423 69.917 9.14272 84.1057 26.9754 93.3217C49.4458 104.94 58.6022 126.149 58.6022 126.149C61.1087 132.461 61.6648 142.434 55.4542 167.357C54.2946 170.774 55.4508 177.251 62.9341 178.049C64.1807 178.135 67.5559 177.625 71.1331 174.93C74.8401 171.207 83.0027 164.676 87.6566 163.817C88.3829 163.758 89.2401 163.716 90.1711 163.753C81.4508 168.728 68.9039 178.58 68.2901 189.812C68.0165 194.858 68.9223 201.623 78.2187 205.67C81.5804 206.973 90.3825 207.384 98.7544 198.544C101.481 195.737 105.696 189.779 108.083 181.997C109.193 178.354 109.95 174.264 109.929 169.949C109.88 169.394 109.776 168.795 109.636 168.157C113.708 167.589 118.109 167.645 122.213 169C125.666 169.701 133.677 173.4 138.051 182.647C139.419 186.188 141.88 195.106 140.709 202.424L140.611 203.18L134.394 191.013C133.625 190.006 131.401 188.237 128.7 189.225C127.131 189.899 124.297 192.183 125.448 195.963L133.682 213.147L133.694 213.169L138.333 222.868C139.057 224.094 141.196 226.342 144.074 225.838C144.133 225.835 144.199 225.844 144.281 225.828C144.322 225.82 144.363 225.812 144.393 225.811C145.275 225.622 147.158 224.445 149.69 220.821ZM99.6016 172.65C99.9354 175.419 98.99 182.761 92.5389 189.972C90.2352 192.336 85.0554 196.277 82.5471 195.501C81.571 195.191 79.4902 194.447 79.2526 191.55C79.295 190.392 79.5386 187.706 82.7205 183.528C84.4963 181.307 89.7389 175.944 96.545 172.282C97.2717 171.895 98.18 171.452 99.2308 171.02C99.3611 171.53 99.4925 172.069 99.6016 172.65Z" fill="url(#paint0_linear_490_2169)"/>
<defs>
<linearGradient id="paint0_linear_490_2169" x1="10.7666" y1="2.89477" x2="10.6654" y2="175.631" gradientUnits="userSpaceOnUse">
<stop stop-color="#FAE159"/>
<stop offset="1" stop-color="#F5CC4A"/>
</linearGradient>
</defs>
</svg>
